<?xml version="1.0" encoding="UTF-8" standalone="no"?>
<!-- Created with Inkscape (http://www.inkscape.org/) -->

<svg
   xmlns:dc="http://purl.org/dc/elements/1.1/"
   xmlns:cc="http://creativecommons.org/ns#"
   xmlns:rdf="http://www.w3.org/1999/02/22-rdf-syntax-ns#"
   xmlns:svg="http://www.w3.org/2000/svg"
   xmlns="http://www.w3.org/2000/svg"
   xmlns:sodipodi="http://sodipodi.sourceforge.net/DTD/sodipodi-0.dtd"
   xmlns:inkscape="http://www.inkscape.org/namespaces/inkscape"
   version="1.1"
   width="4322.8345"
   height="2161.4172"
   id="svg2"
   inkscape:version="0.91pre3 r13670"
   sodipodi:docname="decoupe controleur midi.svg">
  <sodipodi:namedview
     pagecolor="#ffffff"
     bordercolor="#666666"
     borderopacity="1"
     objecttolerance="10"
     gridtolerance="10"
     guidetolerance="10"
     inkscape:pageopacity="0"
     inkscape:pageshadow="2"
     inkscape:window-width="1920"
     inkscape:window-height="1017"
     id="namedview91444"
     showgrid="false"
     inkscape:zoom="0.49996867"
     inkscape:cx="733.18606"
     inkscape:cy="1547.2337"
     inkscape:window-x="-8"
     inkscape:window-y="-8"
     inkscape:window-maximized="1"
     inkscape:current-layer="svg2"
     units="mm"
     inkscape:document-units="mm">
    <inkscape:grid
       id="grid4223"
       type="xygrid" />
  </sodipodi:namedview>
  <defs
     id="defs4">
    <symbol
       id="*PAPER_SPACE" />
    <symbol
       id="*MODEL_SPACE" />
    <pattern
       id="Hatch"
       x="0"
       y="0"
       patternUnits="userSpaceOnUse"
       width="8"
       height="8">
      <path
         id="path617966"
         d="M8 4 l-4,4"
         stroke-width="0.25"
         stroke="#000000"
         linecap="square" />
      <path
         id="path617968"
         d="M6 2 l-4,4"
         stroke-width="0.25"
         stroke="#000000"
         linecap="square" />
      <path
         id="path617970"
         d="M4 0 l-4,4"
         stroke-width="0.25"
         stroke="#000000"
         linecap="square" />
    </pattern>
    <marker
       style="overflow:visible"
       id="DistanceX"
       orient="auto"
       refY="0"
       refX="0">
      <path
         inkscape:connector-curvature="0"
         style="stroke:#000000;stroke-width:0.5"
         id="path617963"
         d="M 3,-3 -3,3 M 0,-5 0,5" />
    </marker>
    <symbol
       id="$PAPER_SPACE" />
    <symbol
       id="$MODEL_SPACE" />
    <pattern
       height="8"
       width="8"
       patternUnits="userSpaceOnUse"
       y="0"
       x="0"
       id="Hatch-0">
      <path
         linecap="square"
         stroke="#000000"
         stroke-width="0.25"
         d="M8 4 l-4,4"
         id="path73478" />
      <path
         linecap="square"
         stroke="#000000"
         stroke-width="0.25"
         d="M6 2 l-4,4"
         id="path73480" />
      <path
         linecap="square"
         stroke="#000000"
         stroke-width="0.25"
         d="M4 0 l-4,4"
         id="path73482" />
    </pattern>
    <marker
       style="overflow:visible"
       id="DistanceX-5"
       orient="auto"
       refY="0"
       refX="0">
      <path
         inkscape:connector-curvature="0"
         style="stroke:#000000;stroke-width:0.5"
         id="path73475"
         d="M 3,-3 -3,3 M 0,-5 0,5" />
    </marker>
    <symbol
       id="$PAPER_SPACE-1" />
    <symbol
       id="$MODEL_SPACE-0" />
    <pattern
       id="Hatch-1"
       x="0"
       y="0"
       patternUnits="userSpaceOnUse"
       width="8"
       height="8">
      <path
         id="path44235"
         d="M8 4 l-4,4"
         stroke-width="0.25"
         stroke="#000000"
         linecap="square" />
      <path
         id="path44237"
         d="M6 2 l-4,4"
         stroke-width="0.25"
         stroke="#000000"
         linecap="square" />
      <path
         id="path44239"
         d="M4 0 l-4,4"
         stroke-width="0.25"
         stroke="#000000"
         linecap="square" />
    </pattern>
    <marker
       style="overflow:visible"
       id="DistanceX-1"
       orient="auto"
       refY="0"
       refX="0">
      <path
         inkscape:connector-curvature="0"
         style="stroke:#000000;stroke-width:0.5"
         id="path44232"
         d="M 3,-3 -3,3 M 0,-5 0,5" />
    </marker>
    <symbol
       id="$PAPER_SPACE-5" />
    <symbol
       id="$MODEL_SPACE-4" />
    <pattern
       height="8"
       width="8"
       patternUnits="userSpaceOnUse"
       y="0"
       x="0"
       id="Hatch-04">
      <path
         linecap="square"
         stroke="#000000"
         stroke-width="0.25"
         d="M8 4 l-4,4"
         id="path101669" />
      <path
         linecap="square"
         stroke="#000000"
         stroke-width="0.25"
         d="M6 2 l-4,4"
         id="path101671" />
      <path
         linecap="square"
         stroke="#000000"
         stroke-width="0.25"
         d="M4 0 l-4,4"
         id="path101673" />
    </pattern>
    <marker
       refY="0"
       refX="0"
       style="overflow:visible"
       id="DistanceX-2"
       orient="auto">
      <path
         inkscape:connector-curvature="0"
         style="stroke:#000000;stroke-width:0.5"
         d="M 3,-3 -3,3 M 0,-5 0,5"
         id="path101666" />
    </marker>
    <symbol
       id="*PAPER_SPACE-9" />
    <symbol
       id="*MODEL_SPACE-2" />
    <pattern
       height="8"
       width="8"
       patternUnits="userSpaceOnUse"
       y="0"
       x="0"
       id="Hatch-9">
      <path
         linecap="square"
         stroke="#000000"
         stroke-width="0.25"
         d="M8 4 l-4,4"
         id="path145873" />
      <path
         linecap="square"
         stroke="#000000"
         stroke-width="0.25"
         d="M6 2 l-4,4"
         id="path145875" />
      <path
         linecap="square"
         stroke="#000000"
         stroke-width="0.25"
         d="M4 0 l-4,4"
         id="path145877" />
    </pattern>
    <marker
       refY="0"
       refX="0"
       style="overflow:visible"
       id="DistanceX-24"
       orient="auto">
      <path
         inkscape:connector-curvature="0"
         style="stroke:#000000;stroke-width:0.5"
         d="M 3,-3 -3,3 M 0,-5 0,5"
         id="path145870" />
    </marker>
    <symbol
       id="$PAPER_SPACE-4" />
    <symbol
       id="$MODEL_SPACE-1" />
    <pattern
       height="8"
       width="8"
       patternUnits="userSpaceOnUse"
       y="0"
       x="0"
       id="Hatch-8">
      <path
         linecap="square"
         stroke="#000000"
         stroke-width="0.25"
         d="M8 4 l-4,4"
         id="path1947" />
      <path
         linecap="square"
         stroke="#000000"
         stroke-width="0.25"
         d="M6 2 l-4,4"
         id="path1949" />
      <path
         linecap="square"
         stroke="#000000"
         stroke-width="0.25"
         d="M4 0 l-4,4"
         id="path1951" />
    </pattern>
    <marker
       refY="0"
       refX="0"
       style="overflow:visible"
       id="DistanceX-55"
       orient="auto">
      <path
         inkscape:connector-curvature="0"
         style="stroke:#000000;stroke-width:0.5"
         d="M 3,-3 -3,3 M 0,-5 0,5"
         id="path1944" />
    </marker>
    <symbol
       id="*PAPER_SPACE-7" />
    <symbol
       id="*MODEL_SPACE-0" />
    <pattern
       height="8"
       width="8"
       patternUnits="userSpaceOnUse"
       y="0"
       x="0"
       id="Hatch-82">
      <path
         linecap="square"
         stroke="#000000"
         stroke-width="0.25"
         d="M8 4 l-4,4"
         id="path1175" />
      <path
         linecap="square"
         stroke="#000000"
         stroke-width="0.25"
         d="M6 2 l-4,4"
         id="path1177" />
      <path
         linecap="square"
         stroke="#000000"
         stroke-width="0.25"
         d="M4 0 l-4,4"
         id="path1179" />
    </pattern>
    <marker
       refY="0"
       refX="0"
       style="overflow:visible"
       id="DistanceX-29"
       orient="auto">
      <path
         inkscape:connector-curvature="0"
         style="stroke:#000000;stroke-width:0.5"
         d="M 3,-3 -3,3 M 0,-5 0,5"
         id="path1172" />
    </marker>
    <symbol
       id="*PAPER_SPACE-76" />
    <symbol
       id="*MODEL_SPACE-5" />
    <pattern
       height="8"
       width="8"
       patternUnits="userSpaceOnUse"
       y="0"
       x="0"
       id="Hatch-3">
      <path
         linecap="square"
         stroke="#000000"
         stroke-width="0.25"
         d="M8 4 l-4,4"
         id="path1809-9" />
      <path
         linecap="square"
         stroke="#000000"
         stroke-width="0.25"
         d="M6 2 l-4,4"
         id="path1811-8" />
      <path
         linecap="square"
         stroke="#000000"
         stroke-width="0.25"
         d="M4 0 l-4,4"
         id="path1813-6" />
    </pattern>
    <marker
       refY="0"
       refX="0"
       style="overflow:visible"
       id="DistanceX-0"
       orient="auto">
      <path
         inkscape:connector-curvature="0"
         style="stroke:#000000;stroke-width:0.5"
         d="M 3,-3 -3,3 M 0,-5 0,5"
         id="path1806" />
    </marker>
    <symbol
       id="*PAPER_SPACE-6" />
    <symbol
       id="*MODEL_SPACE-7" />
    <pattern
       height="8"
       width="8"
       patternUnits="userSpaceOnUse"
       y="0"
       x="0"
       id="Hatch-5">
      <path
         linecap="square"
         stroke="#000000"
         stroke-width="0.25"
         d="M8 4 l-4,4"
         id="path1851" />
      <path
         linecap="square"
         stroke="#000000"
         stroke-width="0.25"
         d="M6 2 l-4,4"
         id="path1853" />
      <path
         linecap="square"
         stroke="#000000"
         stroke-width="0.25"
         d="M4 0 l-4,4"
         id="path1855" />
    </pattern>
    <marker
       refY="0"
       refX="0"
       style="overflow:visible"
       id="DistanceX-6"
       orient="auto">
      <path
         inkscape:connector-curvature="0"
         style="stroke:#000000;stroke-width:0.5"
         d="M 3,-3 -3,3 M 0,-5 0,5"
         id="path1848" />
    </marker>
    <symbol
       id="*PAPER_SPACE-0" />
    <symbol
       id="*MODEL_SPACE-27" />
    <pattern
       height="8"
       width="8"
       patternUnits="userSpaceOnUse"
       y="0"
       x="0"
       id="Hatch-6">
      <path
         linecap="square"
         stroke="#000000"
         stroke-width="0.25"
         d="M8 4 l-4,4"
         id="path1858" />
      <path
         linecap="square"
         stroke="#000000"
         stroke-width="0.25"
         d="M6 2 l-4,4"
         id="path1860" />
      <path
         linecap="square"
         stroke="#000000"
         stroke-width="0.25"
         d="M4 0 l-4,4"
         id="path1862" />
    </pattern>
    <marker
       refY="0"
       refX="0"
       style="overflow:visible"
       id="DistanceX-65"
       orient="auto">
      <path
         inkscape:connector-curvature="0"
         style="stroke:#000000;stroke-width:0.5"
         d="M 3,-3 -3,3 M 0,-5 0,5"
         id="path1855-7" />
    </marker>
  </defs>
  <metadata
     id="metadata7">
    <rdf:RDF>
      <cc:Work
         rdf:about="">
        <dc:format>image/svg+xml</dc:format>
        <dc:type
           rdf:resource="http://purl.org/dc/dcmitype/StillImage" />
        <dc:title></dc:title>
      </cc:Work>
    </rdf:RDF>
  </metadata>
  <g
     id="g3506"
     inkscape:groupmode="layer"
     inkscape:label="newlayer" />
  <g
     id="g3664"
     transform="translate(-1454.1887,-1451.6212)">
    <path
       inkscape:label="part"
       style="fill:none;stroke:#000000"
       d="m 1473.3071,1937.8346 29.1023,0 0,-23.3858 29.1024,0 0,23.3858 29.1024,0 0,-23.3858 29.1023,0 0,23.3858 29.1024,0 0,-23.3858 29.1024,0 0,23.3858 29.1023,0 0,-23.3858 29.1024,0 0,23.3858 29.1023,0 0,-23.3858 29.1024,0 0,23.3858 29.1024,0 0,-23.3858 29.1023,0 0,23.3858 29.1024,0 0,-23.3858 29.1024,0 0,23.3858 29.1023,0"
       id="path3508"
       inkscape:connector-curvature="0" />
    <path
       inkscape:label="part"
       style="fill:none;stroke:#000000"
       d="m 1909.8425,1937.8346 0,5.322 -23.3858,0 0,28.7077 23.3858,0 0,28.7077 -23.3858,0 0,28.7078 23.3858,0 0,28.7077 -23.3858,0 0,28.7077 23.3858,0 0,28.7078 -23.3858,0 0,28.7077 23.3858,0 0,28.7077 -23.3858,0 0,28.7078 23.3858,0 0,28.7077 -23.3858,0 0,28.7077 23.3858,0 0,28.7078 -23.3858,0 0,28.7077 23.3858,0 0,28.7077 -23.3858,0 0,28.7078 23.3858,0 0,28.7077 -23.3858,0 0,28.7077 23.3858,0 0,28.7078 -23.3858,0 0,28.7077 23.3858,0 0,28.7078 -23.3858,0 0,28.7077 23.3858,0 0,28.7077 -23.3858,0 0,28.7078 23.3858,0 0,28.7077 -23.3858,0 0,28.7077 23.3858,0 0,28.7078 -23.3858,0 0,28.7077 23.3858,0 0,28.7077 -23.3858,0 0,28.7078 23.3858,0 0,28.7077 -23.3858,0 0,28.7077 23.3858,0 0,28.7078 -23.3858,0 0,28.7077 23.3858,0 0,28.7077 -23.3858,0 0,28.7078 23.3858,0 0,28.7077 -23.3858,0 0,28.7077 23.3858,0 0,28.7078 -23.3858,0 0,28.7077 23.3858,0 0,28.7078 -23.3858,0 0,28.7077 23.3858,0 0,28.7077 -23.3858,0 0,28.7078 23.3858,0 0,28.7077 -23.3858,0 0,28.7077 23.3858,0 0,28.7078 -23.3858,0 0,28.7077 23.3858,0 0,28.7077 -23.3858,0 0,28.7078 23.3858,0 0,5.3219"
       id="path3510"
       inkscape:connector-curvature="0" />
    <path
       inkscape:label="part"
       style="fill:none;stroke:#000000"
       d="m 1909.8425,3355.1575 -29.1023,0 0,23.3858 -29.1024,0 0,-23.3858 -29.1024,0 0,23.3858 -29.1023,0 0,-23.3858 -29.1024,0 0,23.3858 -29.1024,0 0,-23.3858 -29.1023,0 0,23.3858 -29.1024,0 0,-23.3858 -29.1023,0 0,23.3858 -29.1024,0 0,-23.3858 -29.1024,0 0,23.3858 -29.1023,0 0,-23.3858 -29.1024,0 0,23.3858 -29.1024,0 0,-23.3858 -29.1023,0"
       id="path3512"
       inkscape:connector-curvature="0" />
    <path
       inkscape:label="part"
       style="fill:none;stroke:#000000"
       d="m 1473.3071,3355.1575 0,-5.3219 23.3858,0 0,-28.7078 -23.3858,0 0,-28.7077 23.3858,0 0,-28.7077 -23.3858,0 0,-28.7078 23.3858,0 0,-28.7077 -23.3858,0 0,-28.7077 23.3858,0 0,-28.7078 -23.3858,0 0,-28.7077 23.3858,0 0,-28.7077 -23.3858,0 0,-28.7078 23.3858,0 0,-28.7077 -23.3858,0 0,-28.7078 23.3858,0 0,-28.7077 -23.3858,0 0,-28.7077 23.3858,0 0,-28.7078 -23.3858,0 0,-28.7077 23.3858,0 0,-28.7077 -23.3858,0 0,-28.7078 23.3858,0 0,-28.7077 -23.3858,0 0,-28.7077 23.3858,0 0,-28.7078 -23.3858,0 0,-28.7077 23.3858,0 0,-28.7077 -23.3858,0 0,-28.7078 23.3858,0 0,-28.7077 -23.3858,0 0,-28.7077 23.3858,0 0,-28.7078 -23.3858,0 0,-28.7077 23.3858,0 0,-28.7077 -23.3858,0 0,-28.7078 23.3858,0 0,-28.7077 -23.3858,0 0,-28.7078 23.3858,0 0,-28.7077 -23.3858,0 0,-28.7077 23.3858,0 0,-28.7078 -23.3858,0 0,-28.7077 23.3858,0 0,-28.7077 -23.3858,0 0,-28.7078 23.3858,0 0,-28.7077 -23.3858,0 0,-28.7077 23.3858,0 0,-28.7078 -23.3858,0 0,-28.7077 23.3858,0 0,-28.7077 -23.3858,0 0,-28.7078 23.3858,0 0,-28.7077 -23.3858,0 0,-28.7077 23.3858,0 0,-28.7078 -23.3858,0 0,-28.7077 23.3858,0 0,-28.7077 -23.3858,0 0,-5.322"
       id="path3514"
       inkscape:connector-curvature="0" />
  </g>
  <g
     id="g3676"
     transform="translate(14.143021,-1461.0173)">
    <path
       inkscape:label="part"
       style="fill:none;stroke:#000000"
       d="m 27.992125,1496.6929 5.321909,0 0,-23.3858 28.707735,0 0,23.3858 28.707735,0 0,-23.3858 28.707736,0 0,23.3858 28.70773,0 0,-23.3858 28.70774,0 0,23.3858 28.70773,0 0,-23.3858 28.70774,0 0,23.3858 28.70773,0 0,-23.3858 28.70774,0 0,23.3858 28.70773,0 0,-23.3858 28.70774,0 0,23.3858 28.70773,0 0,-23.3858 28.70774,0 0,23.3858 28.70773,0 0,-23.3858 28.70774,0 0,23.3858 28.70773,0 0,-23.3858 28.70774,0 0,23.3858 28.70773,0 0,-23.3858 28.70774,0 0,23.3858 28.70774,0 0,-23.3858 28.70773,0 0,23.3858 28.70774,0 0,-23.3858 28.70773,0 0,23.3858 28.70774,0 0,-23.3858 28.70773,0 0,23.3858 28.70774,0 0,-23.3858 28.70773,0 0,23.3858 28.70774,0 0,-23.3858 28.70773,0 0,23.3858 28.70774,0 0,-23.3858 28.70773,0 0,23.3858 28.70774,0 0,-23.3858 28.70773,0 0,23.3858 28.70771,0 0,-23.3858 28.7078,0 0,23.3858 28.7077,0 0,-23.3858 28.7077,0 0,23.3858 28.7078,0 0,-23.3858 28.7077,0 0,23.3858 28.7077,0 0,-23.3858 28.7078,0 0,23.3858 28.7077,0 0,-23.3858 28.7077,0 0,23.3858 28.7078,0 0,-23.3858 28.7077,0 0,23.3858 28.7077,0 0,-23.3858 28.7078,0 0,23.3858 28.7077,0 0,-23.3858 28.7078,0 0,23.3858 5.3219,0"
       id="path3516"
       inkscape:connector-curvature="0" />
    <path
       inkscape:label="part"
       style="fill:none;stroke:#000000"
       d="m 1445.315,1496.6929 0,5.7165 23.3858,0 0,29.1024 -23.3858,0 0,29.1024 23.3858,0 0,29.1023 -23.3858,0 0,29.1024 23.3858,0 0,29.1024 -23.3858,0 0,29.1023 23.3858,0 0,29.1024 -23.3858,0 0,29.1023 23.3858,0 0,29.1024 -23.3858,0 0,29.1024 23.3858,0 0,29.1023 -23.3858,0 0,29.1024 23.3858,0 0,29.1024 -23.3858,0 0,5.7165"
       id="path3518"
       inkscape:connector-curvature="0" />
    <path
       inkscape:label="part"
       style="fill:none;stroke:#000000"
       d="m 1445.315,1886.4567 -5.3219,0 0,23.3858 -28.7078,0 0,-23.3858 -28.7077,0 0,23.3858 -28.7078,0 0,-23.3858 -28.7077,0 0,23.3858 -28.7077,0 0,-23.3858 -28.7078,0 0,23.3858 -28.7077,0 0,-23.3858 -28.7077,0 0,23.3858 -28.7078,0 0,-23.3858 -28.7077,0 0,23.3858 -28.7077,0 0,-23.3858 -28.7078,0 0,23.3858 -28.7077,0 0,-23.3858 -28.7077,0 0,23.3858 -28.7078,0 0,-23.3858 -28.70771,0 0,23.3858 -28.70773,0 0,-23.3858 -28.70774,0 0,23.3858 -28.70773,0 0,-23.3858 -28.70774,0 0,23.3858 -28.70773,0 0,-23.3858 -28.70774,0 0,23.3858 -28.70773,0 0,-23.3858 -28.70774,0 0,23.3858 -28.70773,0 0,-23.3858 -28.70774,0 0,23.3858 -28.70773,0 0,-23.3858 -28.70774,0 0,23.3858 -28.70773,0 0,-23.3858 -28.70774,0 0,23.3858 -28.70774,0 0,-23.3858 -28.70773,0 0,23.3858 -28.70774,0 0,-23.3858 -28.70773,0 0,23.3858 -28.70774,0 0,-23.3858 -28.70773,0 0,23.3858 -28.70774,0 0,-23.3858 -28.70773,0 0,23.3858 -28.70774,0 0,-23.3858 -28.70773,0 0,23.3858 -28.70774,0 0,-23.3858 -28.70773,0 0,23.3858 -28.70774,0 0,-23.3858 -28.70773,0 0,23.3858 -28.70774,0 0,-23.3858 -28.70773,0 0,23.3858 -28.707736,0 0,-23.3858 -28.707735,0 0,23.3858 -28.707735,0 0,-23.3858 -5.321909,0"
       id="path3520"
       inkscape:connector-curvature="0" />
    <path
       inkscape:label="part"
       style="fill:none;stroke:#000000"
       d="m 27.992125,1886.4567 0,-5.7165 -23.385826,0 0,-29.1024 23.385826,0 0,-29.1024 -23.385826,0 0,-29.1023 23.385826,0 0,-29.1024 -23.385826,0 0,-29.1024 23.385826,0 0,-29.1023 -23.385826,0 0,-29.1024 23.385826,0 0,-29.1023 -23.385826,0 0,-29.1024 23.385826,0 0,-29.1024 -23.385826,0 0,-29.1023 23.385826,0 0,-29.1024 -23.385826,0 0,-29.1024 23.385826,0 0,-5.7165"
       id="path3522"
       inkscape:connector-curvature="0" />
  </g>
  <g
     id="g3682"
     transform="translate(-549.20323,-545.89111)">
    <path
       inkscape:label="part"
       style="fill:none;stroke:#000000"
       d="m 1473.3071,1473.3071 29.1023,0 0,23.3858 29.1024,0 0,-23.3858 29.1024,0 0,23.3858 29.1023,0 0,-23.3858 29.1024,0 0,23.3858 29.1024,0 0,-23.3858 29.1023,0 0,23.3858 29.1024,0 0,-23.3858 29.1023,0 0,23.3858 29.1024,0 0,-23.3858 29.1024,0 0,23.3858 29.1023,0 0,-23.3858 29.1024,0 0,23.3858 29.1024,0 0,-23.3858 29.1023,0"
       id="path3524"
       inkscape:connector-curvature="0" />
    <path
       inkscape:label="part"
       style="fill:none;stroke:#000000"
       d="m 1909.8425,1473.3071 0,29.1023 -23.3858,0 0,29.1024 23.3858,0 0,29.1024 -23.3858,0 0,29.1023 23.3858,0 0,29.1024 -23.3858,0 0,29.1024 23.3858,0 0,29.1023 -23.3858,0 0,29.1024 23.3858,0 0,29.1023 -23.3858,0 0,29.1024 23.3858,0 0,29.1024 -23.3858,0 0,29.1023 23.3858,0 0,29.1024 -23.3858,0 0,29.1024 23.3858,0 0,29.1023"
       id="path3526"
       inkscape:connector-curvature="0" />
    <path
       inkscape:label="part"
       style="fill:none;stroke:#000000"
       d="m 1909.8425,1909.8425 -29.1023,0 0,-23.3858 -29.1024,0 0,23.3858 -29.1024,0 0,-23.3858 -29.1023,0 0,23.3858 -29.1024,0 0,-23.3858 -29.1024,0 0,23.3858 -29.1023,0 0,-23.3858 -29.1024,0 0,23.3858 -29.1023,0 0,-23.3858 -29.1024,0 0,23.3858 -29.1024,0 0,-23.3858 -29.1023,0 0,23.3858 -29.1024,0 0,-23.3858 -29.1024,0 0,23.3858 -29.1023,0"
       id="path3528"
       inkscape:connector-curvature="0" />
    <path
       inkscape:label="part"
       style="fill:none;stroke:#000000"
       d="m 1473.3071,1909.8425 0,-29.1023 23.3858,0 0,-29.1024 -23.3858,0 0,-29.1024 23.3858,0 0,-29.1023 -23.3858,0 0,-29.1024 23.3858,0 0,-29.1024 -23.3858,0 0,-29.1023 23.3858,0 0,-29.1024 -23.3858,0 0,-29.1023 23.3858,0 0,-29.1024 -23.3858,0 0,-29.1024 23.3858,0 0,-29.1023 -23.3858,0 0,-29.1024 23.3858,0 0,-29.1024 -23.3858,0 0,-29.1023"
       id="path3530"
       inkscape:connector-curvature="0" />
  </g>
  <g
     id="g3688"
     transform="translate(-416.14763,-1466.0456)">
    <path
       inkscape:label="part"
       style="fill:none;stroke:#000000"
       d="m 1937.8346,1496.6929 5.322,0 0,-23.3858 28.7077,0 0,23.3858 28.7077,0 0,-23.3858 28.7078,0 0,23.3858 28.7077,0 0,-23.3858 28.7077,0 0,23.3858 28.7078,0 0,-23.3858 28.7077,0 0,23.3858 28.7077,0 0,-23.3858 28.7078,0 0,23.3858 28.7077,0 0,-23.3858 28.7077,0 0,23.3858 28.7078,0 0,-23.3858 28.7077,0 0,23.3858 28.7077,0 0,-23.3858 28.7078,0 0,23.3858 28.7077,0 0,-23.3858 28.7077,0 0,23.3858 28.7078,0 0,-23.3858 28.7077,0 0,23.3858 28.7078,0 0,-23.3858 28.7077,0 0,23.3858 28.7077,0 0,-23.3858 28.7078,0 0,23.3858 28.7077,0 0,-23.3858 28.7077,0 0,23.3858 28.7078,0 0,-23.3858 28.7077,0 0,23.3858 28.7077,0 0,-23.3858 28.7078,0 0,23.3858 28.7077,0 0,-23.3858 28.7077,0 0,23.3858 28.7078,0 0,-23.3858 28.7077,0 0,23.3858 28.7077,0 0,-23.3858 28.7078,0 0,23.3858 28.7077,0 0,-23.3858 28.7077,0 0,23.3858 28.7078,0 0,-23.3858 28.7077,0 0,23.3858 28.7078,0 0,-23.3858 28.7077,0 0,23.3858 28.7077,0 0,-23.3858 28.7078,0 0,23.3858 28.7077,0 0,-23.3858 28.7077,0 0,23.3858 28.7078,0 0,-23.3858 28.7077,0 0,23.3858 28.7077,0 0,-23.3858 28.7078,0 0,23.3858 5.3219,0"
       id="path3532"
       inkscape:connector-curvature="0" />
    <path
       inkscape:label="part"
       style="fill:none;stroke:#000000"
       d="m 3355.1575,1496.6929 0,5.7165 23.3858,0 0,29.1024 -23.3858,0 0,29.1024 23.3858,0 0,29.1023 -23.3858,0 0,29.1024 23.3858,0 0,29.1024 -23.3858,0 0,29.1023 23.3858,0 0,29.1024 -23.3858,0 0,29.1023 23.3858,0 0,29.1024 -23.3858,0 0,29.1024 23.3858,0 0,29.1023 -23.3858,0 0,29.1024 23.3858,0 0,29.1024 -23.3858,0 0,5.7165"
       id="path3534"
       inkscape:connector-curvature="0" />
    <path
       inkscape:label="part"
       style="fill:none;stroke:#000000"
       d="m 3355.1575,1886.4567 -5.3219,0 0,23.3858 -28.7078,0 0,-23.3858 -28.7077,0 0,23.3858 -28.7077,0 0,-23.3858 -28.7078,0 0,23.3858 -28.7077,0 0,-23.3858 -28.7077,0 0,23.3858 -28.7078,0 0,-23.3858 -28.7077,0 0,23.3858 -28.7077,0 0,-23.3858 -28.7078,0 0,23.3858 -28.7077,0 0,-23.3858 -28.7078,0 0,23.3858 -28.7077,0 0,-23.3858 -28.7077,0 0,23.3858 -28.7078,0 0,-23.3858 -28.7077,0 0,23.3858 -28.7077,0 0,-23.3858 -28.7078,0 0,23.3858 -28.7077,0 0,-23.3858 -28.7077,0 0,23.3858 -28.7078,0 0,-23.3858 -28.7077,0 0,23.3858 -28.7077,0 0,-23.3858 -28.7078,0 0,23.3858 -28.7077,0 0,-23.3858 -28.7077,0 0,23.3858 -28.7078,0 0,-23.3858 -28.7077,0 0,23.3858 -28.7077,0 0,-23.3858 -28.7078,0 0,23.3858 -28.7077,0 0,-23.3858 -28.7078,0 0,23.3858 -28.7077,0 0,-23.3858 -28.7077,0 0,23.3858 -28.7078,0 0,-23.3858 -28.7077,0 0,23.3858 -28.7077,0 0,-23.3858 -28.7078,0 0,23.3858 -28.7077,0 0,-23.3858 -28.7077,0 0,23.3858 -28.7078,0 0,-23.3858 -28.7077,0 0,23.3858 -28.7077,0 0,-23.3858 -28.7078,0 0,23.3858 -28.7077,0 0,-23.3858 -28.7077,0 0,23.3858 -28.7078,0 0,-23.3858 -28.7077,0 0,23.3858 -28.7077,0 0,-23.3858 -5.322,0"
       id="path3536"
       inkscape:connector-curvature="0" />
    <path
       inkscape:label="part"
       style="fill:none;stroke:#000000"
       d="m 1937.8346,1886.4567 0,-5.7165 -23.3858,0 0,-29.1024 23.3858,0 0,-29.1024 -23.3858,0 0,-29.1023 23.3858,0 0,-29.1024 -23.3858,0 0,-29.1024 23.3858,0 0,-29.1023 -23.3858,0 0,-29.1024 23.3858,0 0,-29.1023 -23.3858,0 0,-29.1024 23.3858,0 0,-29.1024 -23.3858,0 0,-29.1023 23.3858,0 0,-29.1024 -23.3858,0 0,-29.1024 23.3858,0 0,-5.7165"
       id="path3538"
       inkscape:connector-curvature="0" />
  </g>
  <g
     id="g3694"
     transform="translate(-2455.9142,-1007.0445)">
    <path
       inkscape:label="part"
       style="fill:none;stroke:#000000"
       d="m 3383.1496,1473.3071 29.1024,0 0,23.3858 29.1023,0 0,-23.3858 29.1024,0 0,23.3858 29.1024,0 0,-23.3858 29.1023,0 0,23.3858 29.1024,0 0,-23.3858 29.1023,0 0,23.3858 29.1024,0 0,-23.3858 29.1024,0 0,23.3858 29.1023,0 0,-23.3858 29.1024,0 0,23.3858 29.1023,0 0,-23.3858 29.1024,0 0,23.3858 29.1024,0 0,-23.3858 29.1023,0"
       id="path3540"
       inkscape:connector-curvature="0" />
    <path
       inkscape:label="part"
       style="fill:none;stroke:#000000"
       d="m 3819.685,1473.3071 0,29.1023 -23.3858,0 0,29.1024 23.3858,0 0,29.1024 -23.3858,0 0,29.1023 23.3858,0 0,29.1024 -23.3858,0 0,29.1024 23.3858,0 0,29.1023 -23.3858,0 0,29.1024 23.3858,0 0,29.1023 -23.3858,0 0,29.1024 23.3858,0 0,29.1024 -23.3858,0 0,29.1023 23.3858,0 0,29.1024 -23.3858,0 0,29.1024 23.3858,0 0,29.1023"
       id="path3542"
       inkscape:connector-curvature="0" />
    <path
       inkscape:label="part"
       style="fill:none;stroke:#000000"
       d="m 3819.685,1909.8425 -29.1023,0 0,-23.3858 -29.1024,0 0,23.3858 -29.1024,0 0,-23.3858 -29.1023,0 0,23.3858 -29.1024,0 0,-23.3858 -29.1023,0 0,23.3858 -29.1024,0 0,-23.3858 -29.1024,0 0,23.3858 -29.1023,0 0,-23.3858 -29.1024,0 0,23.3858 -29.1023,0 0,-23.3858 -29.1024,0 0,23.3858 -29.1024,0 0,-23.3858 -29.1023,0 0,23.3858 -29.1024,0"
       id="path3544"
       inkscape:connector-curvature="0" />
    <path
       inkscape:label="part"
       style="fill:none;stroke:#000000"
       d="m 3383.1496,1909.8425 0,-29.1023 23.3858,0 0,-29.1024 -23.3858,0 0,-29.1024 23.3858,0 0,-29.1023 -23.3858,0 0,-29.1024 23.3858,0 0,-29.1024 -23.3858,0 0,-29.1023 23.3858,0 0,-29.1024 -23.3858,0 0,-29.1023 23.3858,0 0,-29.1024 -23.3858,0 0,-29.1024 23.3858,0 0,-29.1023 -23.3858,0 0,-29.1024 23.3858,0 0,-29.1024 -23.3858,0 0,-29.1023"
       id="path3546"
       inkscape:connector-curvature="0" />
  </g>
  <g
     id="g3670"
     transform="translate(-1006.1546,459.00115)">
    <path
       inkscape:label="part"
       style="fill:none;stroke:#000000"
       d="m 1473.3071,27.992125 29.1023,0 0,-23.385826 29.1024,0 0,23.385826 29.1024,0 0,-23.385826 29.1023,0 0,23.385826 29.1024,0 0,-23.385826 29.1024,0 0,23.385826 29.1023,0 0,-23.385826 29.1024,0 0,23.385826 29.1023,0 0,-23.385826 29.1024,0 0,23.385826 29.1024,0 0,-23.385826 29.1023,0 0,23.385826 29.1024,0 0,-23.385826 29.1024,0 0,23.385826 29.1023,0"
       id="path3548"
       inkscape:connector-curvature="0" />
    <path
       inkscape:label="part"
       style="fill:none;stroke:#000000"
       d="m 1909.8425,27.992125 0,5.321909 -23.3858,0 0,28.707735 23.3858,0 0,28.707735 -23.3858,0 0,28.707736 23.3858,0 0,28.70773 -23.3858,0 0,28.70774 23.3858,0 0,28.70773 -23.3858,0 0,28.70774 23.3858,0 0,28.70773 -23.3858,0 0,28.70774 23.3858,0 0,28.70773 -23.3858,0 0,28.70774 23.3858,0 0,28.70773 -23.3858,0 0,28.70774 23.3858,0 0,28.70773 -23.3858,0 0,28.70774 23.3858,0 0,28.70773 -23.3858,0 0,28.70774 23.3858,0 0,28.70773 -23.3858,0 0,28.70774 23.3858,0 0,28.70774 -23.3858,0 0,28.70773 23.3858,0 0,28.70774 -23.3858,0 0,28.70773 23.3858,0 0,28.70774 -23.3858,0 0,28.70773 23.3858,0 0,28.70774 -23.3858,0 0,28.70773 23.3858,0 0,28.70774 -23.3858,0 0,28.70773 23.3858,0 0,28.70774 -23.3858,0 0,28.70773 23.3858,0 0,28.70774 -23.3858,0 0,28.70773 23.3858,0 0,28.70771 -23.3858,0 0,28.7078 23.3858,0 0,28.7077 -23.3858,0 0,28.7077 23.3858,0 0,28.7078 -23.3858,0 0,28.7077 23.3858,0 0,28.7077 -23.3858,0 0,28.7078 23.3858,0 0,28.7077 -23.3858,0 0,28.7077 23.3858,0 0,28.7078 -23.3858,0 0,28.7077 23.3858,0 0,28.7077 -23.3858,0 0,28.7078 23.3858,0 0,28.7077 -23.3858,0 0,28.7078 23.3858,0 0,5.3219"
       id="path3550"
       inkscape:connector-curvature="0" />
    <path
       inkscape:label="part"
       style="fill:none;stroke:#000000"
       d="m 1909.8425,1445.315 -29.1023,0 0,23.3858 -29.1024,0 0,-23.3858 -29.1024,0 0,23.3858 -29.1023,0 0,-23.3858 -29.1024,0 0,23.3858 -29.1024,0 0,-23.3858 -29.1023,0 0,23.3858 -29.1024,0 0,-23.3858 -29.1023,0 0,23.3858 -29.1024,0 0,-23.3858 -29.1024,0 0,23.3858 -29.1023,0 0,-23.3858 -29.1024,0 0,23.3858 -29.1024,0 0,-23.3858 -29.1023,0"
       id="path3552"
       inkscape:connector-curvature="0" />
    <path
       inkscape:label="part"
       style="fill:none;stroke:#000000"
       d="m 1473.3071,1445.315 0,-5.3219 23.3858,0 0,-28.7078 -23.3858,0 0,-28.7077 23.3858,0 0,-28.7078 -23.3858,0 0,-28.7077 23.3858,0 0,-28.7077 -23.3858,0 0,-28.7078 23.3858,0 0,-28.7077 -23.3858,0 0,-28.7077 23.3858,0 0,-28.7078 -23.3858,0 0,-28.7077 23.3858,0 0,-28.7077 -23.3858,0 0,-28.7078 23.3858,0 0,-28.7077 -23.3858,0 0,-28.7077 23.3858,0 0,-28.7078 -23.3858,0 0,-28.70771 23.3858,0 0,-28.70773 -23.3858,0 0,-28.70774 23.3858,0 0,-28.70773 -23.3858,0 0,-28.70774 23.3858,0 0,-28.70773 -23.3858,0 0,-28.70774 23.3858,0 0,-28.70773 -23.3858,0 0,-28.70774 23.3858,0 0,-28.70773 -23.3858,0 0,-28.70774 23.3858,0 0,-28.70773 -23.3858,0 0,-28.70774 23.3858,0 0,-28.70773 -23.3858,0 0,-28.70774 23.3858,0 0,-28.70774 -23.3858,0 0,-28.70773 23.3858,0 0,-28.70774 -23.3858,0 0,-28.70773 23.3858,0 0,-28.70774 -23.3858,0 0,-28.70773 23.3858,0 0,-28.70774 -23.3858,0 0,-28.70773 23.3858,0 0,-28.70774 -23.3858,0 0,-28.70773 23.3858,0 0,-28.70774 -23.3858,0 0,-28.70773 23.3858,0 0,-28.70774 -23.3858,0 0,-28.70773 23.3858,0 0,-28.70774 -23.3858,0 0,-28.70773 23.3858,0 0,-28.707736 -23.3858,0 0,-28.707735 23.3858,0 0,-28.707735 -23.3858,0 0,-5.321909"
       id="path3554"
       inkscape:connector-curvature="0" />
  </g>
  <path
     style="opacity:1;fill:none;fill-opacity:1;stroke:#ff0000;stroke-width:1;stroke-linecap:butt;stroke-linejoin:miter;stroke-miterlimit:4;stroke-dasharray:none;stroke-opacity:1"
     d="m 43.543716,128.07863 52.149605,0 0,190.33858 -52.149605,0 z"
     id="rect3700" />
</svg>
